<?xml version="1.0" standalone="no"?>
<!DOCTYPE svg PUBLIC "-//W3C//DTD SVG 20010904//EN"
 "http://www.w3.org/TR/2001/REC-SVG-20010904/DTD/svg10.dtd">
<svg version="1.0" xmlns="http://www.w3.org/2000/svg"
 width="152.000000pt" height="152.000000pt" viewBox="0 0 152.000000 152.000000"
 preserveAspectRatio="xMidYMid meet">

<g transform="translate(0.000000,152.000000) scale(0.100000,-0.100000)"
fill="#000000" stroke="none">
<path d="M39 1481 l-39 -39 0 -682 0 -682 39 -39 39 -39 682 0 682 0 39 39 39
39 0 682 0 682 -39 39 -39 39 -682 0 -682 0 -39 -39z m1411 14 c62 -32 60 -10
60 -735 0 -727 3 -696 -60 -734 -25 -14 -95 -16 -690 -16 -595 0 -665 2 -690
16 -63 38 -60 7 -60 734 0 722 -2 702 58 734 41 23 1339 23 1382 1z"/>
<path d="M253 1433 l117 -4 -15 -29 c-9 -17 -13 -30 -11 -30 3 0 12 14 21 30
15 29 17 30 91 30 l75 0 -29 -42 c-38 -57 -44 -68 -38 -68 3 0 21 25 41 55
l35 55 416 0 c229 0 419 2 422 5 3 3 -276 4 -619 3 -343 -1 -571 -4 -506 -5z"/>
<path d="M85 760 c0 -344 1 -484 2 -312 2 171 2 453 0 625 -1 171 -2 31 -2
-313z"/>
<path d="M1429 848 c-1 -293 -1 -564 0 -603 1 -76 4 -75 -45 -10 -8 11 -12 13
-8 5 4 -8 17 -28 29 -45 12 -16 24 -37 28 -45 3 -8 6 265 6 608 1 342 -1 622
-4 622 -3 0 -5 -240 -6 -532z"/>
<path d="M515 1275 c-20 -30 -38 -62 -41 -70 -4 -8 -10 -13 -14 -10 -5 3 -22
-16 -39 -42 -34 -51 -37 -50 -20 8 7 21 16 36 20 33 5 -3 6 1 3 9 -2 7 0 26 6
42 6 15 9 30 6 32 -2 2 -16 -27 -30 -64 -28 -72 -59 -257 -54 -322 l3 -39 42
62 c23 33 45 70 48 81 3 11 -2 6 -12 -11 -10 -17 -30 -46 -45 -65 l-28 -34 0
28 c0 36 81 217 147 330 58 97 62 118 8 32z m-102 -185 c-20 -44 -38 -78 -40
-76 -5 4 64 156 71 156 2 0 -12 -36 -31 -80z"/>
<path d="M996 1249 c14 -28 27 -49 30 -47 5 5 -45 98 -52 98 -2 0 7 -23 22
-51z"/>
<path d="M1141 1270 c0 -8 6 -40 14 -70 9 -39 13 -46 13 -25 0 31 -25 122 -27
95z"/>
<path d="M1071 1244 c0 -11 3 -14 6 -6 3 7 2 16 -1 19 -3 4 -6 -2 -5 -13z"/>
<path d="M890 1231 c0 -6 4 -13 10 -16 6 -3 7 1 4 9 -7 18 -14 21 -14 7z"/>
<path d="M1082 1200 c0 -14 4 -36 8 -50 6 -20 8 -21 8 -5 0 11 -4 34 -8 50 -7
27 -8 27 -8 5z"/>
<path d="M726 1194 c-4 -9 -4 -19 -1 -22 2 -3 7 3 11 12 4 9 4 19 1 22 -2 3
-7 -3 -11 -12z"/>
<path d="M246 1148 c-25 -89 -39 -197 -40 -318 0 -119 16 -206 36 -194 8 5 9
1 4 -12 -4 -12 -4 -15 2 -9 6 6 5 36 -3 80 -7 39 -14 66 -14 60 -1 -5 -6 -3
-12 5 -16 24 9 274 38 378 8 30 13 56 10 58 -3 3 -12 -18 -21 -48z"/>
<path d="M920 1198 c0 -3 25 -48 55 -99 30 -52 55 -89 55 -84 0 6 -23 48 -51
95 -53 88 -59 97 -59 88z"/>
<path d="M771 1139 c-6 -18 -9 -34 -7 -36 2 -2 9 10 15 28 6 18 9 34 7 36 -2
2 -9 -10 -15 -28z"/>
<path d="M907 1135 c3 -16 9 -37 14 -45 15 -27 10 11 -6 45 l-14 30 6 -30z"/>
<path d="M1011 1138 c1 -20 37 -114 38 -100 1 7 -6 35 -15 63 -16 48 -25 62
-23 37z"/>
<path d="M1076 1110 c2 -19 6 -55 9 -80 6 -44 6 -44 -9 -20 -21 34 -19 14 4
-35 l19 -40 0 95 c0 60 -3 90 -8 81 -7 -11 -10 -9 -14 10 -2 13 -3 8 -1 -11z"/>
<path d="M620 1120 c-6 -11 -8 -20 -6 -20 3 0 10 9 16 20 6 11 8 20 6 20 -3 0
-10 -9 -16 -20z"/>
<path d="M1174 1125 c-3 -8 -4 -20 -2 -27 3 -7 7 -1 10 15 6 29 1 36 -8 12z"/>
<path d="M485 1100 c-20 -39 -38 -86 -30 -78 10 10 55 108 50 108 -3 0 -11
-13 -20 -30z"/>
<path d="M661 1080 c-18 -28 -46 -61 -62 -72 -16 -12 -29 -26 -29 -32 0 -5 14
3 31 20 38 36 103 123 97 129 -3 3 -19 -18 -37 -45z"/>
<path d="M291 1084 c0 -11 3 -14 6 -6 3 7 2 16 -1 19 -3 4 -6 -2 -5 -13z"/>
<path d="M1184 1076 c-3 -14 -1 -56 5 -95 6 -38 11 -87 11 -108 1 -29 7 -42
26 -57 25 -18 26 -18 16 0 -5 11 -12 56 -16 101 -3 46 -9 97 -13 115 -5 28 -7
30 -15 13 -5 -13 -6 -7 -3 18 7 41 -1 51 -11 13z m33 -208 c-3 -7 -5 -2 -5 12
0 14 2 19 5 13 2 -7 2 -19 0 -25z"/>
<path d="M540 1024 c-25 -26 -36 -42 -24 -36 18 9 81 82 72 82 -2 0 -24 -21
-48 -46z"/>
<path d="M703 1035 c-37 -39 -45 -58 -10 -23 26 26 51 58 46 58 -2 0 -19 -16
-36 -35z"/>
<path d="M275 984 c-4 -41 -4 -84 1 -95 6 -13 10 11 12 76 2 52 1 95 -2 95 -2
0 -7 -34 -11 -76z"/>
<path d="M581 1026 l-24 -31 28 27 c16 15 27 29 24 31 -2 3 -15 -10 -28 -27z"/>
<path d="M470 983 c-30 -37 -55 -70 -55 -73 0 -3 -4 -11 -8 -18 -5 -6 8 -2 28
9 20 12 53 28 73 35 23 8 29 13 17 14 -12 0 -38 -9 -60 -20 -48 -24 -55 -20
-18 12 15 13 37 37 49 53 53 77 43 72 -26 -12z"/>
<path d="M861 1006 c2 -2 38 -6 79 -9 44 -3 65 -2 50 3 -24 8 -137 14 -129 6z"/>
<path d="M186 983 c-16 -56 -22 -137 -16 -208 l7 -80 1 91 c1 50 7 116 13 148
10 55 7 88 -5 49z"/>
<path d="M1037 993 c-3 -4 1 -17 9 -28 10 -13 14 -15 14 -4 0 20 -16 43 -23
32z"/>
<path d="M1341 964 c0 -11 3 -14 6 -6 3 7 2 16 -1 19 -3 4 -6 -2 -5 -13z"/>
<path d="M1171 848 c-1 -38 3 -68 7 -68 5 0 7 26 5 58 -6 83 -11 87 -12 10z"/>
<path d="M889 860 c-26 -21 -15 -26 25 -10 29 11 59 3 53 -14 -2 -6 -15 -11
-28 -11 -27 0 -34 -20 -24 -71 7 -40 24 -46 18 -6 -4 21 -2 24 6 12 6 -8 11
-12 11 -8 0 4 11 3 25 -2 16 -6 26 -6 31 1 4 6 11 5 21 -3 14 -11 15 -7 12 30
-3 23 -2 42 1 42 14 0 50 -48 50 -66 1 -18 1 -18 11 -1 16 26 -23 81 -75 106
-54 27 -107 27 -137 1z m91 -75 c0 -8 -4 -15 -10 -15 -5 0 -10 7 -10 15 0 8 5
15 10 15 6 0 10 -7 10 -15z"/>
<path d="M286 815 c4 -22 7 -52 8 -67 0 -14 3 -24 5 -22 8 8 51 -87 50 -109 0
-21 -1 -21 -10 2 -5 13 -11 22 -14 19 -8 -7 27 -104 46 -129 l19 -24 -6 35 -5
35 15 -34 c19 -39 19 -44 6 -36 -14 9 -12 -8 3 -25 6 -8 -5 1 -26 20 -21 19
-52 56 -69 83 -17 26 -35 47 -40 47 -21 0 -18 -32 6 -61 17 -19 26 -43 26 -64
0 -41 17 -88 29 -81 8 5 24 -34 18 -41 -9 -8 -70 89 -84 134 -9 29 -20 53 -24
53 -11 0 4 -47 30 -99 12 -24 20 -45 18 -47 -6 -6 -32 35 -41 64 -5 13 -10 22
-12 19 -8 -8 13 -51 47 -97 29 -39 32 -51 30 -100 -1 -30 -11 -79 -20 -107
-13 -39 -14 -50 -4 -42 7 6 13 17 13 25 0 7 4 15 8 18 5 3 6 -8 4 -25 -4 -25
-11 -31 -48 -41 -23 -7 -41 -14 -39 -17 1 -3 -13 -7 -32 -8 l-34 -2 40 44 c46
50 47 52 27 52 -9 0 -12 -7 -8 -16 3 -9 1 -13 -3 -9 -5 5 -16 -6 -26 -22 -11
-17 -23 -30 -28 -30 -5 0 -11 -7 -15 -15 -5 -13 68 -15 616 -15 342 0 618 3
615 7 -4 3 -20 6 -36 5 -26 -1 -32 5 -47 43 -9 24 -20 59 -25 77 -8 29 -8 28
-4 -10 4 -31 2 -41 -6 -37 -19 12 -37 67 -45 134 -6 52 -4 62 6 56 9 -6 12 -4
8 6 -3 8 -2 34 2 59 l7 45 3 -60 c1 -33 6 -82 10 -110 6 -31 7 25 3 150 -3
110 -5 214 -5 230 1 17 -2 23 -5 15 -3 -8 -21 -34 -40 -57 -34 -43 -34 -43
-32 -143 2 -149 17 -142 40 20 7 47 7 43 5 -31 -2 -52 -10 -97 -19 -116 -15
-28 -15 -36 2 -97 10 -37 28 -77 40 -90 23 -24 28 -42 9 -30 -7 5 -8 3 -3 -6
5 -9 4 -11 -4 -6 -6 4 -9 11 -6 15 2 5 -7 19 -20 31 -14 13 -25 20 -25 16 0
-10 30 -57 54 -83 l19 -23 -51 0 c-43 0 -54 4 -71 26 -12 15 -21 22 -21 16 0
-6 5 -14 10 -17 24 -15 6 -25 -44 -25 -34 0 -56 5 -59 13 -4 10 -6 10 -6 0 -1
-10 -46 -13 -191 -13 -104 0 -190 4 -190 8 0 5 13 27 28 48 22 30 27 48 25 79
-7 88 -5 85 -89 129 -62 32 -85 51 -109 87 -16 25 -42 51 -57 57 -16 5 -31 19
-34 29 -11 35 -37 99 -67 168 -17 39 -37 90 -44 115 l-13 45 6 -40z m-12 -231
c3 -8 2 -12 -4 -9 -6 3 -10 10 -10 16 0 14 7 11 14 -7z m148 -179 c12 -40 7
-59 -7 -22 -7 21 -16 42 -20 45 -11 10 5 -59 20 -91 8 -15 19 -52 25 -82 6
-30 13 -55 15 -55 3 0 3 37 0 83 -2 45 -2 72 1 61 3 -12 14 -24 24 -27 14 -4
20 1 23 22 3 18 4 13 6 -15 0 -22 -6 -63 -14 -89 -8 -27 -11 -53 -8 -58 4 -6
0 -8 -10 -4 -11 4 -17 1 -17 -8 0 -22 53 0 137 56 40 27 75 49 78 49 3 0 5
-20 5 -44 0 -34 -8 -57 -31 -90 l-30 -46 -115 0 c-113 0 -115 0 -104 21 6 11
18 23 26 26 8 3 14 17 14 32 0 22 -4 19 -30 -26 l-30 -53 -66 0 c-71 0 -80 16
-14 26 53 9 70 46 70 152 0 70 -12 131 -46 231 -2 8 17 -6 43 -30 27 -24 51
-53 55 -64z m-95 23 c-3 -8 -6 -5 -6 6 -1 11 2 17 5 13 3 -3 4 -12 1 -19z
m120 -30 c-3 -8 -6 -5 -6 6 -1 11 2 17 5 13 3 -3 4 -12 1 -19z m-139 -23 c-3
-3 -9 2 -12 12 -6 14 -5 15 5 6 7 -7 10 -15 7 -18z m272 -32 c0 -2 -9 1 -20 7
-18 10 -20 8 -20 -18 0 -16 9 -37 20 -47 19 -17 20 -17 20 0 0 10 3 16 6 13 3
-3 2 -23 -2 -43 -5 -26 -15 -42 -38 -56 -36 -22 -51 -24 -39 -6 4 6 8 15 9 20
1 4 2 8 4 10 7 9 12 51 10 100 l-1 58 25 -16 c14 -10 26 -19 26 -22z m-220
-79 c0 -54 -23 -147 -33 -133 -2 2 -1 50 1 106 3 82 7 101 18 96 10 -4 14 -23
14 -69z m294 11 c-10 -8 -23 -15 -28 -15 -6 0 -1 7 10 15 10 8 23 15 28 15 6
0 1 -7 -10 -15z m646 -176 c0 -5 -11 -3 -25 3 -26 11 -30 19 -18 31 7 8 43
-21 43 -34z"/>
<path d="M636 188 c-18 -44 -30 -95 -20 -85 10 9 44 117 37 117 -2 0 -10 -15
-17 -32z"/>
<path d="M475 801 c-48 -29 -66 -56 -71 -103 -3 -38 -3 -40 6 -14 19 60 110
126 110 81 0 -8 -9 -15 -19 -15 -11 0 -22 -4 -25 -9 -8 -13 3 -63 20 -85 21
-30 28 -12 7 20 -13 21 -14 26 -3 19 19 -12 51 -7 71 12 14 11 18 12 22 1 3
-7 6 1 6 19 1 17 -4 35 -10 38 -6 4 -8 13 -5 21 13 33 -62 44 -109 15z m75
-81 c0 -5 -4 -10 -10 -10 -5 0 -10 5 -10 10 0 6 5 10 10 10 6 0 10 -4 10 -10z"/>
<path d="M1326 795 c4 -11 10 -42 14 -70 l6 -50 5 37 c3 25 -1 48 -14 70 -10
18 -15 24 -11 13z"/>
<path d="M1252 740 c0 -19 2 -27 5 -17 2 9 2 25 0 35 -3 9 -5 1 -5 -18z"/>
<path d="M990 720 l-25 -8 27 -1 c15 -1 30 4 33 9 7 11 0 11 -35 0z"/>
<path d="M585 670 c-3 -5 -1 -10 4 -10 6 0 11 5 11 10 0 6 -2 10 -4 10 -3 0
-8 -4 -11 -10z"/>
<path d="M536 651 c-4 -5 3 -7 14 -4 23 6 26 13 6 13 -8 0 -17 -4 -20 -9z"/>
<path d="M1332 630 c0 -19 2 -27 5 -17 2 9 2 25 0 35 -3 9 -5 1 -5 -18z"/>
<path d="M395 597 c10 -15 20 -25 23 -22 3 3 -5 16 -17 28 l-23 22 17 -28z"/>
<path d="M1303 560 c0 -25 2 -35 4 -22 2 12 2 32 0 45 -2 12 -4 2 -4 -23z"/>
<path d="M1318 520 c-7 -46 3 -116 22 -160 10 -24 10 -23 4 5 -4 17 -10 68
-13 115 -6 78 -7 81 -13 40z"/>
<path d="M141 500 c10 -46 40 -123 45 -117 2 2 -5 27 -16 55 -11 29 -20 63
-20 77 0 14 -4 25 -9 25 -5 0 -5 -16 0 -40z"/>
<path d="M430 526 c0 -2 7 -9 15 -16 13 -11 14 -10 9 4 -5 14 -24 23 -24 12z"/>
<path d="M26 484 c-8 -20 -8 -338 0 -358 3 -9 16 -16 28 -16 21 0 21 1 15 192
-3 106 -6 194 -7 196 -7 8 -31 -1 -36 -14z"/>
<path d="M1031 467 c-1 -29 -8 -44 -28 -61 -26 -22 -28 -29 -30 -107 -1 -50 1
-71 5 -50 l7 33 45 -39 c81 -69 80 -69 67 -34 -6 17 -15 31 -20 31 -4 0 -5 -6
-1 -12 4 -7 -2 -4 -14 6 -12 11 -22 26 -21 35 0 10 3 8 9 -6 13 -32 22 -29 15
5 -5 26 -5 26 5 3 15 -35 19 -23 10 34 -5 28 -9 84 -10 125 -1 41 -4 68 -7 60
-14 -43 -16 -44 -23 -15 -7 29 -8 29 -9 -8z m26 -79 c-3 -8 -6 -5 -6 6 -1 11
2 17 5 13 3 -3 4 -12 1 -19z m-37 8 c0 -2 -8 -10 -17 -17 -16 -13 -17 -12 -4
4 13 16 21 21 21 13z"/>
<path d="M1458 498 c-1 -2 -4 -90 -7 -196 -6 -191 -6 -192 15 -192 12 0 25 7
28 16 8 20 8 338 0 358 -5 13 -29 22 -36 14z"/>
<path d="M252 380 c0 -14 2 -19 5 -12 2 6 2 18 0 25 -3 6 -5 1 -5 -13z"/>
<path d="M930 349 c-22 -18 -22 -19 -3 -10 12 6 25 16 28 21 9 15 3 12 -25
-11z"/>
<path d="M224 321 c20 -22 26 -25 26 -13 0 4 -10 13 -22 21 -23 14 -23 14 -4
-8z"/>
<path d="M707 299 c7 -7 15 -10 18 -7 3 3 -2 9 -12 12 -14 6 -15 5 -6 -5z"/>
<path d="M800 284 c-22 -8 -28 -13 -15 -13 11 0 31 6 45 14 31 17 17 17 -30
-1z"/>
<path d="M980 197 c0 -9 5 -19 11 -22 6 -4 14 -17 19 -29 8 -18 9 -18 9 -3 1
11 -8 30 -19 44 -14 18 -20 21 -20 10z"/>
<path d="M1320 180 c0 -19 7 -28 50 -65 l35 -30 -31 35 c-17 19 -36 44 -42 55
-8 14 -11 15 -12 5z"/>
<path d="M1415 119 c-4 -6 -5 -12 -2 -15 2 -3 7 2 10 11 7 17 1 20 -8 4z"/>
</g>
</svg>
